<?xml version="1.0" encoding="UTF-8" standalone="no"?>
<!DOCTYPE svg PUBLIC "-//W3C//DTD SVG 1.1//EN" "http://www.w3.org/Graphics/SVG/1.1/DTD/svg11.dtd">
<svg width="100%" height="100%" viewBox="0 0 300 190" version="1.1" xmlns="http://www.w3.org/2000/svg" xmlns:xlink="http://www.w3.org/1999/xlink" xml:space="preserve" xmlns:serif="http://www.serif.com/" style="fill-rule:evenodd;clip-rule:evenodd;stroke-linejoin:round;stroke-miterlimit:2;">
    <g transform="matrix(1,0,0,1,-587.333,-311.111)">
        <g transform="matrix(0.707107,0.707107,-0.707107,0.707107,486.508,-365.294)">
            <path d="M789.928,391.187C789.928,382.849 783.158,376.079 774.82,376.079L597.842,376.079C589.503,376.079 582.734,382.849 582.734,391.187L582.734,421.403C582.734,429.741 589.503,436.511 597.842,436.511L774.82,436.511C783.158,436.511 789.928,429.741 789.928,421.403L789.928,391.187Z" style="fill:white;"/>
        </g>
        <g transform="matrix(0.707107,-0.707107,0.707107,0.707107,15.9521,605.607)">
            <path d="M789.928,391.187C789.928,382.849 783.158,376.079 774.82,376.079L597.842,376.079C589.503,376.079 582.734,382.849 582.734,391.187L582.734,421.403C582.734,429.741 589.503,436.511 597.842,436.511L774.82,436.511C783.158,436.511 789.928,429.741 789.928,421.403L789.928,391.187Z" style="fill:white;"/>
        </g>
    </g>
</svg>
